<svg width="25" height="24" viewBox="0 0 25 24" fill="none" xmlns="http://www.w3.org/2000/svg">
<path d="M11.1327 16.593H4.83203" stroke="white" stroke-width="1.5" stroke-linecap="round" stroke-linejoin="round"/>
<path d="M13.9434 6.90066H20.2441" stroke="white" stroke-width="1.5" stroke-linecap="round" stroke-linejoin="round"/>
<path fill-rule="evenodd" clip-rule="evenodd" d="M9.52902 6.84625C9.52902 5.5506 8.47086 4.5 7.16588 4.5C5.86089 4.5 4.80273 5.5506 4.80273 6.84625C4.80273 8.14191 5.86089 9.19251 7.16588 9.19251C8.47086 9.19251 9.52902 8.14191 9.52902 6.84625Z" stroke="white" stroke-width="1.5" stroke-linecap="round" stroke-linejoin="round"/>
<path fill-rule="evenodd" clip-rule="evenodd" d="M20.8025 16.5533C20.8025 15.2576 19.7451 14.207 18.4401 14.207C17.1343 14.207 16.0762 15.2576 16.0762 16.5533C16.0762 17.8489 17.1343 18.8995 18.4401 18.8995C19.7451 18.8995 20.8025 17.8489 20.8025 16.5533Z" stroke="white" stroke-width="1.5" stroke-linecap="round" stroke-linejoin="round"/>
</svg>
