<svg width="30" height="31" viewBox="0 0 30 31" fill="none" xmlns="http://www.w3.org/2000/svg">
<path d="M1.5625 14.1523C1.5625 8.49584 1.5625 5.66684 3.3205 3.91034C5.077 2.15234 7.906 2.15234 13.5625 2.15234H16.5625C22.219 2.15234 25.048 2.15234 26.8045 3.91034C28.5625 5.66684 28.5625 8.49584 28.5625 14.1523V17.1523C28.5625 22.8088 28.5625 25.6378 26.8045 27.3943C25.048 29.1523 22.219 29.1523 16.5625 29.1523H13.5625C7.906 29.1523 5.077 29.1523 3.3205 27.3943C1.5625 25.6378 1.5625 22.8088 1.5625 17.1523V14.1523Z" stroke="black" stroke-width="2.65674"/>
<path d="M21.8125 11.1523C23.0551 11.1523 24.0625 10.145 24.0625 8.90234C24.0625 7.6597 23.0551 6.65234 21.8125 6.65234C20.5699 6.65234 19.5625 7.6597 19.5625 8.90234C19.5625 10.145 20.5699 11.1523 21.8125 11.1523Z" fill="black"/>
<path d="M15.0625 20.1523C17.5478 20.1523 19.5625 18.1376 19.5625 15.6523C19.5625 13.1671 17.5478 11.1523 15.0625 11.1523C12.5772 11.1523 10.5625 13.1671 10.5625 15.6523C10.5625 18.1376 12.5772 20.1523 15.0625 20.1523Z" stroke="black" stroke-width="2.65674"/>
</svg>
