<svg width="26" height="26" viewBox="0 0 26 26" fill="none" xmlns="http://www.w3.org/2000/svg">
<path fill-rule="evenodd" clip-rule="evenodd" d="M13.0625 0.277344C13.3609 0.277344 13.647 0.39587 13.858 0.606848C14.069 0.817827 14.1875 1.10398 14.1875 1.40234V11.5273H24.3125C24.6109 11.5273 24.897 11.6459 25.108 11.8568C25.319 12.0678 25.4375 12.354 25.4375 12.6523C25.4375 12.9507 25.319 13.2369 25.108 13.4478C24.897 13.6588 24.6109 13.7773 24.3125 13.7773H14.1875V23.9023C14.1875 24.2007 14.069 24.4869 13.858 24.6978C13.647 24.9088 13.3609 25.0273 13.0625 25.0273C12.7641 25.0273 12.478 24.9088 12.267 24.6978C12.056 24.4869 11.9375 24.2007 11.9375 23.9023V13.7773H1.8125C1.51413 13.7773 1.22798 13.6588 1.017 13.4478C0.806026 13.2369 0.6875 12.9507 0.6875 12.6523C0.6875 12.354 0.806026 12.0678 1.017 11.8568C1.22798 11.6459 1.51413 11.5273 1.8125 11.5273H11.9375V1.40234C11.9375 1.10398 12.056 0.817827 12.267 0.606848C12.478 0.39587 12.7641 0.277344 13.0625 0.277344Z" fill="black"/>
</svg>
