<svg width="33" height="30" viewBox="0 0 33 30" fill="none" xmlns="http://www.w3.org/2000/svg">
<path fill-rule="evenodd" clip-rule="evenodd" d="M10.2095 3.83597C10.61 1.87097 12.359 0.480469 14.3615 0.480469H19.2635C21.266 0.480469 23.0135 1.87097 23.4155 3.83597C23.4598 4.05235 23.5756 4.24753 23.7443 4.3901C23.913 4.53267 24.1248 4.61434 24.3455 4.62197H24.395C26.4995 4.71497 28.1165 4.97297 29.4665 5.85947C30.317 6.41747 31.049 7.13447 31.619 7.97297C32.3285 9.01397 32.6405 10.211 32.7905 11.657C32.9375 13.0715 32.9375 14.843 32.9375 17.087V17.2145C32.9375 19.4585 32.9375 21.2315 32.7905 22.6445C32.6405 24.0905 32.3285 25.2875 31.619 26.33C31.0472 27.169 30.3158 27.8871 29.4665 28.4435C28.412 29.135 27.2015 29.441 25.7345 29.5865C24.2975 29.7305 22.496 29.7305 20.207 29.7305H13.418C11.129 29.7305 9.3275 29.7305 7.8905 29.5865C6.4235 29.441 5.213 29.1365 4.1585 28.4435C3.30906 27.8867 2.57763 27.168 2.006 26.3285C1.2965 25.2875 0.9845 24.0905 0.8345 22.6445C0.6875 21.2315 0.6875 19.4585 0.6875 17.2145V17.087C0.6875 14.843 0.6875 13.0715 0.8345 11.657C0.9845 10.211 1.2965 9.01397 2.006 7.97297C2.57763 7.13345 3.30906 6.41476 4.1585 5.85797C5.5085 4.97297 7.1255 4.71497 9.23 4.62347L9.2555 4.62197H9.2795C9.50024 4.61434 9.71199 4.53267 9.88068 4.3901C10.0494 4.24753 10.1652 4.05235 10.2095 3.83597ZM14.3615 2.73047C13.4015 2.73047 12.596 3.39497 12.4145 4.28447C12.122 5.72447 10.844 6.85847 9.3065 6.87197C7.2845 6.96197 6.2015 7.20947 5.3915 7.74047C4.78982 8.1353 4.27152 8.64443 3.866 9.23897C3.452 9.84647 3.203 10.625 3.071 11.8895C2.939 13.1735 2.9375 14.8295 2.9375 17.1515C2.9375 19.4735 2.9375 21.128 3.0725 22.412C3.203 23.6765 3.452 24.455 3.8675 25.064C4.2695 25.655 4.787 26.165 5.393 26.5625C6.0185 26.972 6.8195 27.2195 8.114 27.3485C9.425 27.479 11.114 27.4805 13.4795 27.4805H20.1455C22.5095 27.4805 24.1985 27.4805 25.511 27.3485C26.8055 27.2195 27.6065 26.9735 28.232 26.5625C28.838 26.165 29.357 25.655 29.759 25.0625C30.173 24.455 30.422 23.6765 30.554 22.412C30.686 21.128 30.6875 19.472 30.6875 17.1515C30.6875 14.8295 30.6875 13.1735 30.5525 11.8895C30.422 10.625 30.173 9.84647 29.7575 9.23897C29.3524 8.64364 28.8341 8.13394 28.232 7.73897C27.425 7.20947 26.342 6.96197 24.317 6.87197C22.781 6.85697 21.503 5.72597 21.2105 4.28447C21.1145 3.84088 20.8684 3.44401 20.5136 3.16088C20.1589 2.87776 19.7173 2.72573 19.2635 2.73047H14.3615ZM16.8125 13.2305C15.9174 13.2305 15.059 13.586 14.426 14.219C13.7931 14.8519 13.4375 15.7104 13.4375 16.6055C13.4375 17.5006 13.7931 18.359 14.426 18.992C15.059 19.6249 15.9174 19.9805 16.8125 19.9805C17.7076 19.9805 18.566 19.6249 19.199 18.992C19.8319 18.359 20.1875 17.5006 20.1875 16.6055C20.1875 15.7104 19.8319 14.8519 19.199 14.219C18.566 13.586 17.7076 13.2305 16.8125 13.2305ZM11.1875 16.6055C11.1875 15.1136 11.7801 13.6829 12.835 12.628C13.8899 11.5731 15.3207 10.9805 16.8125 10.9805C18.3043 10.9805 19.7351 11.5731 20.79 12.628C21.8449 13.6829 22.4375 15.1136 22.4375 16.6055C22.4375 18.0973 21.8449 19.5281 20.79 20.5829C19.7351 21.6378 18.3043 22.2305 16.8125 22.2305C15.3207 22.2305 13.8899 21.6378 12.835 20.5829C11.7801 19.5281 11.1875 18.0973 11.1875 16.6055ZM24.6875 12.1055C24.6875 11.8071 24.806 11.521 25.017 11.31C25.228 11.099 25.5141 10.9805 25.8125 10.9805H27.3125C27.6109 10.9805 27.897 11.099 28.108 11.31C28.319 11.521 28.4375 11.8071 28.4375 12.1055C28.4375 12.4038 28.319 12.69 28.108 12.901C27.897 13.1119 27.6109 13.2305 27.3125 13.2305H25.8125C25.5141 13.2305 25.228 13.1119 25.017 12.901C24.806 12.69 24.6875 12.4038 24.6875 12.1055Z" fill="black"/>
</svg>
