<svg width="29" height="28" viewBox="0 0 29 28" fill="none" xmlns="http://www.w3.org/2000/svg">
<g clip-path="url(#clip0_5_1810)">
<path d="M14.6309 28C22.3628 28 28.6309 21.732 28.6309 14C28.6309 6.26802 22.3628 0 14.6309 0C6.89887 0 0.630859 6.26802 0.630859 14C0.630859 21.732 6.89887 28 14.6309 28Z" fill="#3C5A9A"/>
<path d="M19.1825 4.29688H16.0811C14.2407 4.29688 12.1936 5.07094 12.1936 7.73873C12.2026 8.6683 12.1936 9.55855 12.1936 10.5605H10.0645V13.9486H12.2595V23.7023H16.293V13.8842H18.9552L19.1961 10.551H16.2235C16.2235 10.551 16.2301 9.06819 16.2235 8.63759C16.2235 7.58333 17.3205 7.64371 17.3864 7.64371C17.9085 7.64371 18.9234 7.64523 19.184 7.64371V4.29688H19.1825Z" fill="white"/>
</g>
<defs>
<clipPath id="clip0_5_1810">
<rect width="28" height="28" fill="white" transform="translate(0.630859)"/>
</clipPath>
</defs>
</svg>
