<svg width="28" height="28" viewBox="0 0 28 28" fill="none" xmlns="http://www.w3.org/2000/svg">
<g clip-path="url(#clip0_5_1805)">
<path d="M27.6163 14.2615C27.6163 13.1144 27.5233 12.2773 27.3221 11.4092H14.2363V16.5868H21.9174C21.7626 17.8735 20.9263 19.8113 19.068 21.1134L19.0419 21.2868L23.1794 24.4953L23.466 24.524C26.0986 22.0901 27.6163 18.5091 27.6163 14.2615Z" fill="#4285F4"/>
<path d="M14.236 27.9035C17.9991 27.9035 21.1582 26.6632 23.4657 24.524L19.0677 21.1135C17.8907 21.9351 16.3111 22.5087 14.236 22.5087C10.5504 22.5087 7.42219 20.0749 6.30708 16.7109L6.14363 16.7248L1.84142 20.0578L1.78516 20.2144C4.07708 24.772 8.78487 27.9035 14.236 27.9035Z" fill="#34A853"/>
<path d="M6.30738 16.7113C6.01315 15.8432 5.84286 14.913 5.84286 13.9519C5.84286 12.9907 6.01315 12.0606 6.2919 11.1925L6.2841 11.0076L1.92798 7.62109L1.78546 7.68896C0.840848 9.58024 0.298828 11.7041 0.298828 13.9519C0.298828 16.1997 0.840848 18.3234 1.78546 20.2147L6.30738 16.7113Z" fill="#FBBC05"/>
<path d="M14.236 5.3947C16.8531 5.3947 18.6185 6.52635 19.6252 7.47205L23.5586 3.6275C21.1428 1.37969 17.9991 0 14.236 0C8.78486 0 4.07708 3.1314 1.78516 7.68899L6.2916 11.1925C7.42218 7.82857 10.5504 5.3947 14.236 5.3947Z" fill="#EB4335"/>
</g>
<defs>
<clipPath id="clip0_5_1805">
<rect width="27.3333" height="28" fill="white" transform="translate(0.296875)"/>
</clipPath>
</defs>
</svg>
